<svg width="105" height="77" viewBox="0 0 105 77" fill="none" xmlns="http://www.w3.org/2000/svg">
<path d="M6.34558 6.11361L30.8702 47.875C31.73 49.3364 31.2418 51.2197 29.7805 52.0764C28.9175 52.5834 27.9034 52.6181 27.0436 52.2622C26.4515 52.0102 25.9287 51.5788 25.5791 50.9804L1.05454 9.21895L0.500244 2.21777L6.34558 6.11046V6.11361Z" fill="#BABABA"/>
<path d="M22.8733 46.379L25.5787 50.9835C26.4385 52.4479 28.3155 52.9393 29.78 52.0795C31.2445 51.2197 31.7295 49.3395 30.8697 47.875L28.1643 43.2705L22.8733 46.3758V46.379Z" fill="#9A9A9A"/>
<path d="M4.12734 6.5454L2.58472 7.45117L24.6102 44.9627L26.1528 44.057L4.12734 6.5454Z" fill="#9A9A9A"/>
<path d="M27.4489 42.1678L22.2046 45.2471L23.1901 46.9255L28.4344 43.8462L27.4489 42.1678Z" fill="#FAFAFA"/>
<path d="M6.34558 6.11677C4.96613 9.91498 1.05454 9.2221 1.05454 9.2221L0.793139 5.87741L0.500244 2.21777L3.56778 4.2586L6.34558 6.11046V6.11677Z" fill="#FAFAFA"/>
<path d="M3.56778 4.26468C3.40716 4.61742 3.17095 4.94496 2.84656 5.17486C2.15054 5.66932 1.36004 5.83625 0.793139 5.88034L0.500244 2.2207L3.56778 4.26153V4.26468Z" fill="#9B9B9B"/>
<path opacity="0.6" d="M6.34558 6.11361L30.8702 47.875C31.73 49.3364 31.2418 51.2197 29.7805 52.0764C28.9175 52.5834 27.9034 52.6181 27.0436 52.2622C29.9757 49.9379 27.2294 44.5461 27.2294 44.5461L5.52988 7.59699L0.500244 2.21777L6.34558 6.11046V6.11361Z" fill="#FAFAFA"/>
<path d="M76.9111 7.01693L54.1502 49.7641C53.3534 51.2601 51.4953 51.8301 49.9993 51.0333C49.1143 50.5609 48.5568 49.7169 48.4088 48.8004C48.3112 48.1642 48.4088 47.4934 48.7332 46.8824L71.4941 4.1352L77.1694 0L76.908 7.01693H76.9111Z" fill="#9A9A9A"/>
<path d="M51.2463 42.1709L48.7362 46.8856C47.9394 48.3847 48.5 50.2429 49.9991 51.0397C51.4982 51.8365 53.3533 51.2664 54.1501 49.7673L56.6602 45.0526L51.2463 42.1709Z" fill="#9A9A9A"/>
<path d="M73.8052 4.50392L53.3632 42.9014L54.9422 43.742L75.3843 5.34458L73.8052 4.50392Z" fill="#BABABA"/>
<path d="M57.2404 43.8599L51.8722 41.002L50.9575 42.72L56.3257 45.5779L57.2404 43.8599Z" fill="#FAFAFA"/>
<path d="M76.9109 7.01986C72.9521 7.83241 71.4971 4.13813 71.4971 4.13813L74.2087 2.16659L77.1723 0.00292969L77.0369 3.68461L76.9109 7.01986Z" fill="#FAFAFA"/>
<path d="M77.0373 3.68483C76.6531 3.73522 76.2531 3.70373 75.8846 3.54626C75.0972 3.21242 74.5429 2.62348 74.2091 2.16366L77.1727 0L77.0373 3.68168V3.68483Z" fill="#9B9B9B"/>
<path opacity="0.6" d="M76.9114 7.01693L54.1505 49.7641C53.3537 51.2601 51.4955 51.8301 49.9995 51.0333C49.1145 50.5609 48.5571 49.7169 48.4091 48.8004C51.9238 50.0822 55.0795 44.9234 55.0795 44.9234L75.217 7.09881L77.1696 0L76.9082 7.01693H76.9114Z" fill="#FAFAFA"/>
<path d="M44.7742 1.25008L17.5789 10.4433L57.3593 39.9566L61.1732 42.7847L46.8937 0.535156L44.7742 1.25008ZM30.2427 12.4368L43.1648 8.06859L49.4605 26.688L30.2427 12.4337V12.4368Z" fill="#9A9A9A"/>
<path d="M58.3196 36.3251L55.5032 37.2773L55.6393 37.6801L58.4558 36.7279L58.3196 36.3251Z" fill="#FAFAFA"/>
<path d="M57.1667 32.9269L55.4572 33.5049L55.5933 33.9077L57.3029 33.3297L57.1667 32.9269Z" fill="#FAFAFA"/>
<path d="M56.0173 29.5273L53.2008 30.4795L53.337 30.8823L56.1534 29.9301L56.0173 29.5273Z" fill="#FAFAFA"/>
<path d="M54.8674 26.13L53.1578 26.708L53.294 27.1108L55.0036 26.5328L54.8674 26.13Z" fill="#FAFAFA"/>
<path d="M53.7178 22.7294L50.9014 23.6816L51.0375 24.0844L53.854 23.1322L53.7178 22.7294Z" fill="#FAFAFA"/>
<path d="M52.5686 19.3283L50.859 19.9062L50.9952 20.309L52.7047 19.731L52.5686 19.3283Z" fill="#FAFAFA"/>
<path d="M51.4187 15.9277L48.6023 16.8799L48.7385 17.2827L51.5549 16.3304L51.4187 15.9277Z" fill="#FAFAFA"/>
<path d="M50.2692 12.5304L48.5597 13.1084L48.6959 13.5112L50.4054 12.9332L50.2692 12.5304Z" fill="#FAFAFA"/>
<path d="M49.1223 9.12884L46.3059 10.0811L46.4421 10.4838L49.2585 9.53162L49.1223 9.12884Z" fill="#FAFAFA"/>
<path d="M47.9731 5.72865L46.2635 6.30664L46.3997 6.70942L48.1093 6.13143L47.9731 5.72865Z" fill="#FAFAFA"/>
<path d="M46.8224 2.32805L44.006 3.28027L44.1422 3.68305L46.9586 2.73083L46.8224 2.32805Z" fill="#FAFAFA"/>
<g style="mix-blend-mode:multiply" opacity="0.5">
<path d="M46.8936 0.532227L61.1731 42.785L57.3592 39.9568L56.5277 37.39L56.3923 36.9837L54.3074 30.562L54.1751 30.1589L52.087 23.7341L51.9547 23.3309L49.8667 16.9093L49.7375 16.503L48.7549 13.4921L48.6258 13.0921L47.6495 10.0844L47.5172 9.67817L46.5377 6.66732L46.4054 6.26419L45.4291 3.25648L45.2969 2.85021L44.774 1.2503L46.8936 0.532227Z" fill="#9A9A9A"/>
</g>
<g style="mix-blend-mode:multiply" opacity="0.5">
<path d="M30.2429 12.4365L31.2507 14.6254L50.3489 28.7726L49.4607 26.6908L30.2429 12.4365Z" fill="#9A9A9A"/>
</g>
<path d="M104.338 10.8254L72.0032 3.23535L61.1096 49.6437L93.4447 57.2338L104.338 10.8254Z" fill="#233D26"/>
<path d="M103.14 10.5442L70.8049 2.9541L59.9114 49.3625L92.2464 56.9525L103.14 10.5442Z" fill="#FAFAFA"/>
<path d="M98.5561 9.46701L66.2211 1.87695L55.3275 48.2853L87.6625 55.8754L98.5561 9.46701Z" fill="#444444"/>
<path d="M64.8366 1.54965L53.9431 47.958L86.2781 55.5481L97.1716 9.13971L64.8366 1.54965Z" fill="#444444"/>
<path d="M83.6945 52.4968L61.4879 47.2845C60.3446 47.0168 59.636 45.8704 59.9037 44.7271L68.8575 6.5655C69.1252 5.42226 70.2716 4.71364 71.4149 4.98134L93.6215 10.1936C94.7647 10.4613 95.4734 11.6077 95.2057 12.751L86.2518 50.9126C85.9841 52.0558 84.8377 52.7645 83.6945 52.4968ZM71.3456 5.28054C70.3693 5.05063 69.3866 5.65847 69.1567 6.63794L60.2029 44.7996C59.973 45.7759 60.5808 46.7585 61.5603 46.9884L83.7669 52.2007C84.7432 52.4306 85.7259 51.8228 85.9558 50.8433L94.9096 12.6817C95.1395 11.7054 94.5317 10.7227 93.5522 10.4928L71.3456 5.28054Z" fill="#FAFAFA"/>
<path d="M90.9894 14.3248L70.8329 9.59346C70.6635 9.55371 70.494 9.65876 70.4543 9.82809L68.6773 17.3983C68.6376 17.5676 68.7426 17.7371 68.9119 17.7769L89.0684 22.5082C89.2378 22.548 89.4073 22.4429 89.447 22.2736L91.224 14.7034C91.2637 14.5341 91.1587 14.3646 90.9894 14.3248Z" fill="#FAFAFA"/>
<path d="M88.6464 24.3053L68.49 19.5739C68.3206 19.5342 68.1511 19.6392 68.1114 19.8086L67.6932 21.59C67.6535 21.7593 67.7585 21.9288 67.9279 21.9685L88.0843 26.6999C88.2537 26.7397 88.4232 26.6346 88.4629 26.4653L88.8811 24.6839C88.9208 24.5145 88.8158 24.345 88.6464 24.3053Z" fill="#FAFAFA"/>
<path d="M68.1122 2.31789L64.8192 1.54492L53.9257 47.9533L57.2187 48.7262L68.1122 2.31789Z" fill="#9B9B9B"/>
<g style="mix-blend-mode:multiply" opacity="0.4">
<path d="M97.1618 9.12581L86.2711 55.5358L53.9327 47.9488L54.3579 46.141C78.9612 48.2386 93.8738 16.3065 96.9224 9.07227L97.1618 9.12896V9.12581Z" fill="#444444"/>
</g>
<g style="mix-blend-mode:multiply" opacity="0.4">
<path d="M98.979 14.3975C98.705 17.1595 98.157 19.8554 97.5428 22.5356C96.9003 25.2094 96.1917 27.8707 95.2091 30.4659C95.4831 27.7038 96.0311 25.0079 96.6452 22.3277C97.2877 19.6539 97.9963 16.9926 98.979 14.3975Z" fill="#444444"/>
</g>
<g style="mix-blend-mode:multiply" opacity="0.4">
<path d="M92.9953 39.8955C92.8693 41.4797 92.5638 43.0229 92.2174 44.5567C91.8489 46.0841 91.4332 47.6022 90.8411 49.0761C90.967 47.4919 91.2694 45.9487 91.619 44.4149C91.9906 42.8875 92.4032 41.3694 92.9953 39.8955Z" fill="#444444"/>
</g>
<g style="mix-blend-mode:multiply" opacity="0.4">
<path d="M97.3736 28.8662C97.1122 30.8157 96.7532 32.74 96.3753 34.6612C96.0099 36.5855 95.5753 38.4909 95.1407 40.3994C94.684 42.3017 94.2242 44.2039 93.6951 46.0904C93.1754 47.9769 92.6432 49.8635 92.0101 51.7216C92.2715 49.7721 92.6306 47.8478 93.0054 45.9267C93.3707 44.0024 93.8053 42.097 94.2431 40.1884C94.6998 38.2862 95.1596 36.3839 95.6887 34.5005C96.2083 32.614 96.7406 30.7275 97.3736 28.8662Z" fill="#444444"/>
</g>
<path opacity="0.6" d="M60.9839 17.9094L74.8981 3.90078L72.432 3.32129L61.661 15.0246L60.9839 17.9094Z" fill="#FAFAFA"/>
<path opacity="0.6" d="M81.0175 5.33656L56.5968 36.6041L59.8218 22.8568L76.9232 4.37598L81.0175 5.33656Z" fill="#FAFAFA"/>
<path d="M98.9789 12.9678L104.5 15.2102L101.965 16.6054L102.516 18.6273L97.9459 17.4557L98.9789 12.9678Z" fill="#9A9A9A"/>
<path d="M96.299 32.3027L101.82 34.5451L99.2815 35.9403L99.8326 37.9623L95.2628 36.7907L96.299 32.3027Z" fill="#BABABA"/>
<path d="M83.7135 29.7783L47.1612 74.5663L10.6089 29.7783L5.90369 30.4492L8.25631 76.3048L47.1612 75.6844L86.0661 76.3048L88.4187 30.4492L83.7135 29.7783Z" fill="#BABABA"/>
<path d="M82.4538 26.2236L47.1613 66.7379L11.8688 26.2236C11.8688 26.2236 11.8688 30.0754 7.89111 32.0658L10.8736 74.5674C10.8736 74.5674 24.7909 70.218 47.1613 74.5674C69.5317 70.218 83.449 74.5674 83.449 74.5674L86.4316 32.0658C82.4538 30.0785 82.4538 26.2236 82.4538 26.2236Z" fill="#D2D2D2"/>
<path d="M16.4669 26.2229H11.8688L14.1679 69.3448C14.1679 69.3448 28.397 65.7419 47.1613 66.734L16.4669 26.2197V26.2229Z" fill="#FAFAFA"/>
<path d="M16.7128 25.1045H13.1099L15.4719 66.7368C15.4719 66.7368 28.7688 64.0031 47.1615 66.7368L31.8773 25.1045H16.716H16.7128Z" fill="#D2D2D2"/>
<path d="M77.8555 26.2229H82.4536L80.1545 69.3448C80.1545 69.3448 65.9254 65.7419 47.1611 66.734L77.8555 26.2197V26.2229Z" fill="#FAFAFA"/>
<path d="M77.6098 25.1045H81.2127L78.8507 66.7368C78.8507 66.7368 65.5538 64.0031 47.1611 66.7368L62.4453 25.1045H77.6067H77.6098Z" fill="#D2D2D2"/>
<path d="M47.1612 25.1047C40.0781 17.8956 14.8512 20.3837 14.8512 20.3837L16.5897 63.3828C23.9215 60.8979 47.1612 66.737 47.1612 66.737C47.1612 66.737 70.4008 60.8948 77.7327 63.3828L79.4712 20.3837C79.4712 20.3837 54.2442 17.8988 47.1612 25.1047Z" fill="#FAFAFA"/>
<path d="M47.1615 27.5898C47.3915 30.7267 47.5143 33.8604 47.5962 36.9972C47.6466 38.5656 47.6592 40.134 47.6907 41.6993L47.7221 46.4014L47.6938 51.1035C47.6623 52.6719 47.6529 54.2403 47.5993 55.8056C47.5174 58.9424 47.3946 62.0761 47.1615 65.2129C46.9285 62.0761 46.8057 58.9424 46.7238 55.8056C46.6702 54.2372 46.6608 52.6687 46.6293 51.1035L46.601 46.4014L46.6324 41.6993C46.6639 40.1309 46.6734 38.5625 46.7269 36.9972C46.8088 33.8604 46.9316 30.7267 47.1615 27.5898Z" fill="#D2D2D2"/>
<path d="M18.9517 25.1045C18.9517 25.1045 31.8139 25.1675 36.2893 27.5894V37.1196C36.2893 37.1196 22.3404 36.2314 18.9517 37.1196V25.1045Z" fill="#D2D2D2"/>
<path d="M18.9517 42.3166C21.0082 42.0174 23.0806 41.882 25.1497 41.8127C27.2221 41.7371 29.2944 41.7749 31.3699 41.8694C32.406 41.926 33.4422 42.0079 34.4752 42.1056C34.9917 42.156 35.5082 42.2315 36.0247 42.2945L36.7995 42.3953L37.5711 42.5307C39.6151 42.8866 41.6842 43.3433 43.5613 44.2629C41.5394 43.7874 39.5017 43.5858 37.4577 43.3937C35.4137 43.2205 33.3666 43.0756 31.3132 42.9843C30.2896 42.9118 29.2597 42.8835 28.233 42.8299L25.1466 42.6819C23.0869 42.5874 21.0271 42.4803 18.9548 42.3166H18.9517Z" fill="#D2D2D2"/>
<path d="M18.9517 48.2092C21.0082 47.91 23.0806 47.7745 25.1497 47.7052C27.2221 47.6297 29.2944 47.6675 31.3699 47.7619C32.406 47.8186 33.4422 47.9005 34.4752 47.9981C34.9917 48.0485 35.5082 48.1241 36.0247 48.1871L36.7995 48.2879L37.5711 48.4233C39.6151 48.7792 41.6842 49.2359 43.5613 50.1555C41.5394 49.6799 39.5017 49.4784 37.4577 49.2863C35.4137 49.113 33.3666 48.9682 31.3132 48.8768C30.2896 48.8044 29.2597 48.7761 28.233 48.7225L25.1466 48.5745C23.0869 48.48 21.0271 48.3729 18.9548 48.2092H18.9517Z" fill="#D2D2D2"/>
<path d="M18.9517 54.1008C21.0082 53.8016 23.0806 53.6661 25.1497 53.5969C27.2221 53.5213 29.2944 53.5591 31.3699 53.6535C32.406 53.7102 33.4422 53.7921 34.4752 53.8897C34.9917 53.9401 35.5082 54.0157 36.0247 54.0787L36.7995 54.1795L37.5711 54.3149C39.6151 54.6708 41.6842 55.1275 43.5613 56.0471C41.5394 55.5715 39.5017 55.37 37.4577 55.1779C35.4137 55.0047 33.3666 54.8598 31.3132 54.7684C30.2896 54.696 29.2597 54.6677 28.233 54.6141L25.1466 54.4661C23.0869 54.3716 21.0271 54.2645 18.9548 54.1008H18.9517Z" fill="#D2D2D2"/>
<path d="M18.9517 58.926C21.0082 58.6268 23.0806 58.4913 25.1497 58.422C27.2221 58.3465 29.2944 58.3843 31.3699 58.4787C32.406 58.5354 33.4422 58.6173 34.4752 58.7149C34.9917 58.7653 35.5082 58.8409 36.0247 58.9039L36.7995 59.0047L37.5711 59.1401C39.6151 59.496 41.6842 59.9527 43.5613 60.8723C41.5394 60.3967 39.5017 60.1952 37.4577 60.0031C35.4137 59.8298 33.3666 59.685 31.3132 59.5936C30.2896 59.5212 29.2597 59.4929 28.233 59.4393L25.1466 59.2913C23.0869 59.1968 21.0271 59.0897 18.9548 58.926H18.9517Z" fill="#D2D2D2"/>
<path d="M75.3704 25.1045C75.3704 25.1045 62.5082 25.1675 58.0328 27.5894V37.1196C58.0328 37.1196 71.9817 36.2314 75.3704 37.1196V25.1045Z" fill="#D2D2D2"/>
<path d="M75.3704 42.3166C73.2981 42.4803 71.2383 42.5843 69.1786 42.6819L66.0922 42.8299C65.0655 42.8835 64.0356 42.9118 63.012 42.9843C60.9586 43.0756 58.9115 43.2205 56.8675 43.3937C54.8267 43.5858 52.7858 43.7842 50.7639 44.2629C52.641 43.3433 54.7101 42.8835 56.7541 42.5307L57.5257 42.3953L58.3005 42.2945C58.817 42.2315 59.3335 42.156 59.85 42.1056C60.883 42.0079 61.9192 41.926 62.9554 41.8694C65.0277 41.7749 67.1032 41.7371 69.1755 41.8127C71.2478 41.882 73.317 42.0174 75.3736 42.3166H75.3704Z" fill="#D2D2D2"/>
<path d="M75.3704 48.2092C73.2981 48.3729 71.2383 48.4769 69.1786 48.5745L66.0922 48.7225C65.0655 48.7761 64.0356 48.8044 63.012 48.8768C60.9586 48.9682 58.9115 49.113 56.8675 49.2863C54.8267 49.4784 52.7858 49.6768 50.7639 50.1555C52.641 49.2359 54.7101 48.7761 56.7541 48.4233L57.5257 48.2879L58.3005 48.1871C58.817 48.1241 59.3335 48.0485 59.85 47.9981C60.883 47.9005 61.9192 47.8186 62.9554 47.7619C65.0277 47.6675 67.1032 47.6297 69.1755 47.7052C71.2478 47.7745 73.317 47.91 75.3736 48.2092H75.3704Z" fill="#D2D2D2"/>
<path d="M75.3704 54.1008C73.2981 54.2645 71.2383 54.3685 69.1786 54.4661L66.0922 54.6141C65.0655 54.6677 64.0356 54.696 63.012 54.7684C60.9586 54.8598 58.9115 55.0047 56.8675 55.1779C54.8267 55.37 52.7858 55.5684 50.7639 56.0471C52.641 55.1275 54.7101 54.6677 56.7541 54.3149L57.5257 54.1795L58.3005 54.0787C58.817 54.0157 59.3335 53.9401 59.85 53.8897C60.883 53.7921 61.9192 53.7102 62.9554 53.6535C65.0277 53.5591 67.1032 53.5213 69.1755 53.5969C71.2478 53.6661 73.317 53.8016 75.3736 54.1008H75.3704Z" fill="#D2D2D2"/>
<path d="M75.3704 58.926C73.2981 59.0897 71.2383 59.1937 69.1786 59.2913L66.0922 59.4393C65.0655 59.4929 64.0356 59.5212 63.012 59.5936C60.9586 59.685 58.9115 59.8298 56.8675 60.0031C54.8267 60.1952 52.7858 60.3936 50.7639 60.8723C52.641 59.9527 54.7101 59.4929 56.7541 59.1401L57.5257 59.0047L58.3005 58.9039C58.817 58.8409 59.3335 58.7653 59.85 58.7149C60.883 58.6173 61.9192 58.5354 62.9554 58.4787C65.0277 58.3843 67.1032 58.3465 69.1755 58.422C71.2478 58.4913 73.317 58.6268 75.3736 58.926H75.3704Z" fill="#D2D2D2"/>
</svg>
