<svg width="57" height="58" viewBox="0 0 57 58" fill="none" xmlns="http://www.w3.org/2000/svg">
<circle cx="25.5968" cy="32.4027" r="25.3969" fill="#AEDAA6"/>
<path fill-rule="evenodd" clip-rule="evenodd" d="M6.43756 33.7988C6.32414 33.7988 6.23219 33.8908 6.23219 34.0042V35.031H5.20537C5.09195 35.031 5 35.123 5 35.2364C5 35.3498 5.09195 35.4418 5.20537 35.4418H6.23219V36.4686C6.23219 36.582 6.32414 36.6739 6.43756 36.6739C6.55098 36.6739 6.64292 36.582 6.64292 36.4686V35.4418H7.66975C7.78317 35.4418 7.87512 35.3498 7.87512 35.2364C7.87512 35.123 7.78317 35.031 7.66975 35.031H6.64292V34.0042C6.64292 33.8908 6.55098 33.7988 6.43756 33.7988Z" fill="white"/>
<path fill-rule="evenodd" clip-rule="evenodd" d="M47.6292 51.1087C47.4909 50.9562 47.2666 50.9562 47.1282 51.1087L45.8757 52.4894L44.6233 51.1087C44.4849 50.9562 44.2606 50.9562 44.1223 51.1087C43.9839 51.2612 43.9839 51.5085 44.1223 51.661L45.3747 53.0417L44.1223 54.4224C43.9839 54.5749 43.9839 54.8222 44.1223 54.9747C44.2606 55.1272 44.4849 55.1272 44.6233 54.9747L45.8757 53.594L47.1282 54.9747C47.2666 55.1272 47.4909 55.1272 47.6292 54.9747C47.7675 54.8222 47.7675 54.5749 47.6292 54.4224L46.3767 53.0417L47.6292 51.661C47.7675 51.5085 47.7675 51.2612 47.6292 51.1087Z" fill="#F9B49E"/>
<path fill-rule="evenodd" clip-rule="evenodd" d="M31.8746 0.199219C31.6478 0.199219 31.4639 0.413758 31.4639 0.678405V3.07434H29.4102C29.1834 3.07434 28.9995 3.28888 28.9995 3.55352C28.9995 3.81817 29.1834 4.03271 29.4102 4.03271H31.4639V6.42864C31.4639 6.69329 31.6478 6.90783 31.8746 6.90783C32.1015 6.90783 32.2854 6.69329 32.2854 6.42864V4.03271H34.339C34.5659 4.03271 34.7497 3.81817 34.7497 3.55352C34.7497 3.28888 34.5659 3.07434 34.339 3.07434H32.2854V0.678405C32.2854 0.413758 32.1015 0.199219 31.8746 0.199219Z" fill="#7678F5"/>
<path fill-rule="evenodd" clip-rule="evenodd" d="M13.2474 50.4489C13.1563 50.3485 13.0086 50.3485 12.9175 50.4489L12.0925 51.3583L11.2676 50.4489C11.1765 50.3485 11.0287 50.3485 10.9376 50.4489C10.8465 50.5494 10.8465 50.7122 10.9376 50.8127L11.7626 51.7221L10.9376 52.6314C10.8465 52.7319 10.8465 52.8947 10.9376 52.9952C11.0287 53.0956 11.1765 53.0956 11.2676 52.9952L12.0925 52.0858L12.9175 52.9952C13.0086 53.0956 13.1563 53.0956 13.2474 52.9952C13.3386 52.8947 13.3386 52.7319 13.2474 52.6314L12.4225 51.7221L13.2474 50.8127C13.3386 50.7122 13.3386 50.5494 13.2474 50.4489Z" fill="white"/>
<circle cx="2.59576" cy="14.1934" r="1.43756" fill="#A9AAF5"/>
<circle cx="47.5582" cy="34.7572" r="0.958373" fill="white"/>
<path fill-rule="evenodd" clip-rule="evenodd" d="M15.5699 11.8379H41.2691C42.6884 11.8379 43.839 13.0051 43.839 14.445V48.3378C43.839 49.7777 42.6884 50.945 41.2691 50.945H15.5699C14.1506 50.945 13 49.7777 13 48.3378V14.445C13 13.0051 14.1506 11.8379 15.5699 11.8379Z" fill="white"/>
<path d="M14.9285 49.6417C39.9851 44.4274 38.0577 36.606 42.5551 14.4453V47.6417C42.5551 48.7463 41.6596 49.6417 40.5551 49.6417H14.9285Z" fill="#046B21" fill-opacity="0.2"/>
<path d="M39.9839 17.0527H18.1396V19.6599H39.9839V17.0527Z" fill="#4D4D4D" fill-opacity="0.2"/>
<path d="M39.9839 22.2676H18.1396V24.8747H39.9839V22.2676Z" fill="#4D4D4D" fill-opacity="0.2"/>
<path d="M39.9839 27.4805H18.1396V30.0876H39.9839V27.4805Z" fill="#4D4D4D" fill-opacity="0.2"/>
<path d="M39.9839 32.6953H18.1396V35.3025H39.9839V32.6953Z" fill="#4D4D4D" fill-opacity="0.2"/>
<path d="M39.9839 37.9102H18.1396V40.5173H39.9839V37.9102Z" fill="#4D4D4D" fill-opacity="0.2"/>
<path d="M39.9839 43.123H18.1396V45.7302H39.9839V43.123Z" fill="#4D4D4D" fill-opacity="0.2"/>
<path fill-rule="evenodd" clip-rule="evenodd" d="M41.2691 15.445C41.2691 14.8927 40.8213 14.445 40.2691 14.445H16.5699C16.0176 14.445 15.5699 14.8927 15.5699 15.445L15.5699 47.3379C15.5699 47.8901 16.0176 48.3379 16.5699 48.3379H40.2691C40.8213 48.3379 41.2691 47.8901 41.2691 47.3379V15.445ZM15.5699 11.8379H41.2691C42.6884 11.8379 43.839 13.0051 43.839 14.445V48.3379C43.839 49.7777 42.6884 50.945 41.2691 50.945H15.5699C14.1506 50.945 13 49.7777 13 48.3378V14.445C13 13.0051 14.1506 11.8379 15.5699 11.8379Z" fill="#3B8650"/>
<path fill-rule="evenodd" clip-rule="evenodd" d="M28.7733 41.549C28.8263 41.2633 28.9273 40.9919 29.1218 40.7476C29.8545 39.8333 31.4131 41.1575 31.878 41.7273C32.1852 42.1023 32.3361 42.7995 31.8008 43.1365C31.1441 43.5506 30.1212 44.0789 29.3595 44.3049C28.76 44.4826 28.6692 44.0635 28.6616 43.1127C28.6581 42.6131 28.6767 42.0633 28.7733 41.549Z" fill="#54666F"/>
<path fill-rule="evenodd" clip-rule="evenodd" d="M30.2575 42.4569C30.3716 42.327 30.4856 42.1972 30.5991 42.0653C30.8618 41.7605 31.2323 41.3611 31.6397 41.6963C31.9798 41.9782 31.8356 42.5053 31.5254 42.7811C31.0263 43.2217 30.4951 43.5659 29.906 43.8838C29.7124 43.989 29.3805 44.2496 29.1516 44.2466C28.8339 44.2425 28.9282 43.9372 29.0598 43.7899C29.2275 43.6034 29.3952 43.4169 29.565 43.2298C29.7962 42.9735 30.0268 42.7152 30.257 42.4549L30.2575 42.4569Z" fill="#97A79F"/>
<path fill-rule="evenodd" clip-rule="evenodd" d="M37.5766 39.7906L31.7957 43.1352C31.7957 43.1352 30.6554 41.1567 28.8405 41.4019C28.6096 41.4331 29.8358 34.4575 29.8358 34.4575L34.9992 33.7207L37.681 38.6686L37.5766 39.7906Z" fill="url(#paint0_linear_1762_15940)"/>
<path fill-rule="evenodd" clip-rule="evenodd" d="M33.246 34.6812C33.0546 34.9456 33.0151 35.2487 32.8738 35.5353C33.4308 35.7078 33.8776 36.2846 33.8167 36.8922C34.311 36.8105 34.7262 36.7396 35.2114 36.9001C35.6067 37.0303 36.3663 37.3497 36.4612 37.8013C36.5541 37.6667 36.662 37.5385 36.762 37.4062C37.6252 36.2734 38.4517 35.1191 39.2482 33.9435C40.3914 32.2613 41.5372 30.5806 42.6985 28.9083C44.0073 27.0235 45.314 25.1391 46.6104 23.2492C47.6814 21.6877 48.7524 20.1262 49.8316 18.5708C50.2614 17.9513 50.6901 17.3279 51.1193 16.7064C51.531 16.1107 51.6146 15.4717 51.3024 15.2789L48.5874 13.6003C48.2753 13.4075 47.6908 13.7346 47.2765 14.3289L33.2449 34.6772L33.246 34.6812Z" fill="#FFCA51"/>
<path fill-rule="evenodd" clip-rule="evenodd" d="M37.157 36.4273C36.9889 36.6707 36.6482 36.9316 36.7683 37.2355C36.8682 37.4881 37.1405 37.6223 37.226 37.9124C37.3825 38.4378 37.4053 39.1109 37.115 39.6126C37.6225 39.4052 37.9325 39.4135 38.2513 38.9525L54.3317 15.7988C54.7433 15.2031 54.827 14.5641 54.5148 14.3713C54.491 14.3568 52.1304 14.9753 51.9528 15.0489C51.7033 15.1524 51.5962 15.4844 51.1856 16.0756L37.1545 36.4259L37.157 36.4273Z" fill="#FFE076"/>
<path fill-rule="evenodd" clip-rule="evenodd" d="M33.8706 34.321C33.6539 34.6323 33.5018 34.987 33.2681 35.284C32.6151 34.6391 31.164 34.5603 30.4957 35.2825C30.6247 35.1423 30.2044 34.7665 30.1635 34.6535C30.0734 34.4046 30.2287 34.213 30.3711 34.006L46.3936 10.8176C46.8053 10.2219 47.4553 9.93376 47.8445 10.175C47.8761 10.1938 48.5565 12.6947 48.58 12.8924C48.6107 13.168 48.3102 13.3801 47.9001 13.9732L33.8685 34.3215L33.8706 34.321Z" fill="#F7F297"/>
<path fill-rule="evenodd" clip-rule="evenodd" d="M33.4666 34.6141C33.25 34.9254 33.1 35.2795 32.8642 35.5771C32.2107 34.9302 30.7596 34.8514 30.0918 35.5756C30.2213 35.4374 29.8005 35.0596 29.7596 34.9466C29.6695 34.6977 29.8248 34.5061 29.9677 34.3011L45.9897 11.1107C46.4013 10.515 47.0514 10.2268 47.4406 10.4681C47.4721 10.4869 48.1526 12.9878 48.1755 13.1835C48.2063 13.4591 47.9063 13.6731 47.4957 14.2643L33.4641 34.6127L33.4666 34.6141Z" fill="#EB9A42"/>
<path fill-rule="evenodd" clip-rule="evenodd" d="M46.5076 10.0764C50.3473 10.7321 52.5706 11.9913 54.985 14.879C54.2443 16.0395 53.8729 16.62 53.1322 17.7805C50.7178 14.8927 48.4944 13.6336 44.6568 12.9773C45.3976 11.8168 45.7669 11.2368 46.5102 10.0778L46.5076 10.0764Z" fill="url(#paint1_linear_1762_15940)"/>
<path fill-rule="evenodd" clip-rule="evenodd" d="M46.5571 9.97852C50.4257 10.6516 52.6697 11.922 55.1131 14.8271C54.3723 15.9876 54.0009 16.5681 53.2602 17.7286C50.8168 14.8234 48.5728 13.5531 44.7021 12.8805C45.4429 11.7201 45.8164 11.139 46.5571 9.97852Z" fill="#97A79F"/>
<path fill-rule="evenodd" clip-rule="evenodd" d="M48.3283 7.27125C50.797 6.11434 56.8571 9.95455 56.8869 12.1213C56.1462 13.2817 55.7748 13.8622 55.0335 15.0207C52.5907 12.1176 50.3461 10.8452 46.4775 10.1721C47.2183 9.01166 47.5855 8.43228 48.3283 7.27125Z" fill="#F27060"/>
<defs>
<linearGradient id="paint0_linear_1762_15940" x1="35.0735" y1="40.4912" x2="28.795" y2="34.1672" gradientUnits="userSpaceOnUse">
<stop stop-color="#FFC797"/>
<stop offset="0.31" stop-color="#E5AB77"/>
<stop offset="0.74" stop-color="#C68950"/>
<stop offset="0.97" stop-color="#BB7C42"/>
</linearGradient>
<linearGradient id="paint1_linear_1762_15940" x1="55.2115" y1="4.17129" x2="48.899" y2="15.5115" gradientUnits="userSpaceOnUse">
<stop stop-color="white"/>
<stop offset="0.02" stop-color="#FCFCFC"/>
<stop offset="0.48" stop-color="#BFC0BD"/>
<stop offset="0.81" stop-color="#999B96"/>
<stop offset="0.98" stop-color="#8B8D88"/>
</linearGradient>
</defs>
</svg>
