<svg width="185" height="32" viewBox="0 0 185 32" fill="none" xmlns="http://www.w3.org/2000/svg">
<g filter="url(#filter0_d_1_628)">
<path d="M10.456 18.776H17.624V23H4.984V0.535999H10.456V18.776ZM38.346 13.784C38.346 14.296 38.314 14.8293 38.25 15.384H25.866C25.9513 16.4933 26.3033 17.3467 26.922 17.944C27.562 18.52 28.3407 18.808 29.258 18.808C30.6233 18.808 31.5727 18.232 32.106 17.08H37.93C37.6313 18.2533 37.0873 19.3093 36.298 20.248C35.53 21.1867 34.5593 21.9227 33.386 22.456C32.2127 22.9893 30.9007 23.256 29.45 23.256C27.7007 23.256 26.1433 22.8827 24.778 22.136C23.4127 21.3893 22.346 20.3227 21.578 18.936C20.81 17.5493 20.426 15.928 20.426 14.072C20.426 12.216 20.7993 10.5947 21.546 9.208C22.314 7.82133 23.3807 6.75467 24.746 6.008C26.1113 5.26133 27.6793 4.888 29.45 4.888C31.178 4.888 32.714 5.25067 34.058 5.976C35.402 6.70133 36.4473 7.736 37.194 9.08C37.962 10.424 38.346 11.992 38.346 13.784ZM32.746 12.344C32.746 11.4053 32.426 10.6587 31.786 10.104C31.146 9.54933 30.346 9.272 29.386 9.272C28.4687 9.272 27.69 9.53867 27.05 10.072C26.4313 10.6053 26.0473 11.3627 25.898 12.344H32.746ZM41.4248 14.04C41.4248 12.2053 41.7661 10.5947 42.4488 9.208C43.1528 7.82133 44.1021 6.75467 45.2968 6.008C46.4914 5.26133 47.8248 4.888 49.2968 4.888C50.5554 4.888 51.6541 5.144 52.5928 5.656C53.5528 6.168 54.2888 6.84 54.8008 7.672V5.144H60.2728V23H54.8008V20.472C54.2674 21.304 53.5208 21.976 52.5608 22.488C51.6221 23 50.5234 23.256 49.2648 23.256C47.8141 23.256 46.4914 22.8827 45.2968 22.136C44.1021 21.368 43.1528 20.2907 42.4488 18.904C41.7661 17.496 41.4248 15.8747 41.4248 14.04ZM54.8008 14.072C54.8008 12.7067 54.4168 11.6293 53.6488 10.84C52.9021 10.0507 51.9848 9.656 50.8968 9.656C49.8088 9.656 48.8808 10.0507 48.1128 10.84C47.3661 11.608 46.9928 12.6747 46.9928 14.04C46.9928 15.4053 47.3661 16.4933 48.1128 17.304C48.8808 18.0933 49.8088 18.488 50.8968 18.488C51.9848 18.488 52.9021 18.0933 53.6488 17.304C54.4168 16.5147 54.8008 15.4373 54.8008 14.072ZM70.9835 8.12C71.6235 7.13867 72.4235 6.37067 73.3835 5.816C74.3435 5.24 75.4102 4.952 76.5835 4.952V10.744H75.0795C73.7142 10.744 72.6902 11.0427 72.0075 11.64C71.3248 12.216 70.9835 13.24 70.9835 14.712V23H65.5115V5.144H70.9835V8.12ZM91.359 4.952C93.4497 4.952 95.1137 5.63467 96.351 7C97.6097 8.344 98.239 10.2 98.239 12.568V23H92.799V13.304C92.799 12.1093 92.4897 11.1813 91.871 10.52C91.2523 9.85867 90.4203 9.528 89.375 9.528C88.3297 9.528 87.4977 9.85867 86.879 10.52C86.2603 11.1813 85.951 12.1093 85.951 13.304V23H80.479V5.144H85.951V7.512C86.5057 6.72267 87.2523 6.104 88.191 5.656C89.1297 5.18667 90.1857 4.952 91.359 4.952ZM108.794 4.92V9.464H116.122V13.688H108.794V18.616H117.082V23H103.322V0.535999H117.082V4.92H108.794ZM120.826 14.04C120.826 12.2053 121.167 10.5947 121.85 9.208C122.554 7.82133 123.503 6.75467 124.698 6.008C125.893 5.26133 127.226 4.888 128.698 4.888C129.957 4.888 131.055 5.144 131.994 5.656C132.954 6.168 133.69 6.84 134.202 7.672V5.144H139.674V23H134.202V20.472C133.669 21.304 132.922 21.976 131.962 22.488C131.023 23 129.925 23.256 128.666 23.256C127.215 23.256 125.893 22.8827 124.698 22.136C123.503 21.368 122.554 20.2907 121.85 18.904C121.167 17.496 120.826 15.8747 120.826 14.04ZM134.202 14.072C134.202 12.7067 133.818 11.6293 133.05 10.84C132.303 10.0507 131.386 9.656 130.298 9.656C129.21 9.656 128.282 10.0507 127.514 10.84C126.767 11.608 126.394 12.6747 126.394 14.04C126.394 15.4053 126.767 16.4933 127.514 17.304C128.282 18.0933 129.21 18.488 130.298 18.488C131.386 18.488 132.303 18.0933 133.05 17.304C133.818 16.5147 134.202 15.4373 134.202 14.072ZM152.177 23.256C150.619 23.256 149.233 22.9893 148.017 22.456C146.801 21.9227 145.841 21.1973 145.137 20.28C144.433 19.3413 144.038 18.296 143.953 17.144H149.361C149.425 17.7627 149.713 18.264 150.225 18.648C150.737 19.032 151.366 19.224 152.113 19.224C152.795 19.224 153.318 19.096 153.681 18.84C154.065 18.5627 154.257 18.2107 154.257 17.784C154.257 17.272 153.99 16.8987 153.457 16.664C152.923 16.408 152.059 16.1307 150.865 15.832C149.585 15.5333 148.518 15.224 147.665 14.904C146.811 14.5627 146.075 14.04 145.457 13.336C144.838 12.6107 144.529 11.64 144.529 10.424C144.529 9.4 144.806 8.472 145.361 7.64C145.937 6.78667 146.769 6.11467 147.857 5.624C148.966 5.13333 150.278 4.888 151.793 4.888C154.033 4.888 155.793 5.44267 157.073 6.552C158.374 7.66133 159.121 9.13333 159.313 10.968H154.257C154.171 10.3493 153.894 9.85867 153.425 9.496C152.977 9.13333 152.379 8.952 151.633 8.952C150.993 8.952 150.502 9.08 150.161 9.336C149.819 9.57067 149.649 9.90133 149.649 10.328C149.649 10.84 149.915 11.224 150.449 11.48C151.003 11.736 151.857 11.992 153.009 12.248C154.331 12.5893 155.409 12.9307 156.241 13.272C157.073 13.592 157.798 14.1253 158.417 14.872C159.057 15.5973 159.387 16.5787 159.409 17.816C159.409 18.8613 159.11 19.8 158.513 20.632C157.937 21.4427 157.094 22.0827 155.985 22.552C154.897 23.0213 153.627 23.256 152.177 23.256ZM180.869 13.784C180.869 14.296 180.837 14.8293 180.773 15.384H168.389C168.474 16.4933 168.826 17.3467 169.445 17.944C170.085 18.52 170.863 18.808 171.781 18.808C173.146 18.808 174.095 18.232 174.629 17.08H180.453C180.154 18.2533 179.61 19.3093 178.821 20.248C178.053 21.1867 177.082 21.9227 175.909 22.456C174.735 22.9893 173.423 23.256 171.973 23.256C170.223 23.256 168.666 22.8827 167.301 22.136C165.935 21.3893 164.869 20.3227 164.101 18.936C163.333 17.5493 162.949 15.928 162.949 14.072C162.949 12.216 163.322 10.5947 164.069 9.208C164.837 7.82133 165.903 6.75467 167.269 6.008C168.634 5.26133 170.202 4.888 171.973 4.888C173.701 4.888 175.237 5.25067 176.581 5.976C177.925 6.70133 178.97 7.736 179.717 9.08C180.485 10.424 180.869 11.992 180.869 13.784ZM175.269 12.344C175.269 11.4053 174.949 10.6587 174.309 10.104C173.669 9.54933 172.869 9.272 171.909 9.272C170.991 9.272 170.213 9.53867 169.573 10.072C168.954 10.6053 168.57 11.3627 168.421 12.344H175.269Z" fill="#113C49"/>
</g>
<defs>
<filter id="filter0_d_1_628" x="0.984001" y="0.535995" width="183.884" height="30.72" filterUnits="userSpaceOnUse" color-interpolation-filters="sRGB">
<feFlood flood-opacity="0" result="BackgroundImageFix"/>
<feColorMatrix in="SourceAlpha" type="matrix" values="0 0 0 0 0 0 0 0 0 0 0 0 0 0 0 0 0 0 127 0" result="hardAlpha"/>
<feOffset dy="4"/>
<feGaussianBlur stdDeviation="2"/>
<feComposite in2="hardAlpha" operator="out"/>
<feColorMatrix type="matrix" values="0 0 0 0 0 0 0 0 0 0 0 0 0 0 0 0 0 0 0.25 0"/>
<feBlend mode="normal" in2="BackgroundImageFix" result="effect1_dropShadow_1_628"/>
<feBlend mode="normal" in="SourceGraphic" in2="effect1_dropShadow_1_628" result="shape"/>
</filter>
</defs>
</svg>
