<svg width="74" height="77" viewBox="0 0 74 77" fill="none" xmlns="http://www.w3.org/2000/svg">
<g filter="url(#filter0_d_1_648)">
<path d="M59.9775 39.8299L60.6252 30.8072C54.0002 27.3412 45.5229 28.114 38.4888 32.8299V59.6142C44.8751 57.4778 52.3297 58.8301 58.307 63.1598C58.557 59.6939 59.0798 52.3869 59.0798 52.3869C57.1138 51.3416 55.7615 49.2619 55.7615 46.8755V45.739C55.7617 42.9891 57.523 40.6708 59.9775 39.8299Z" fill="white"/>
<path d="M12.5112 30.8072L13.159 39.8299C15.6022 40.6709 17.375 43.0003 17.375 45.7278V46.8642C17.375 49.2506 16.0341 51.3302 14.0567 52.3757V52.4439C14.3181 56.0121 14.5681 59.5918 14.8294 63.16C20.8068 58.8305 28.2728 57.5008 34.6477 59.6144V32.8411C27.6024 28.1138 19.1249 27.3411 12.5112 30.8072Z" fill="#56ACE0"/>
<path d="M56.0343 41.0458L56.5912 33.2616C54.4548 32.2843 47.557 31.3412 42.3069 34.9889V54.9209C45.9207 54.2845 51.3979 55.2049 54.8979 56.8868C55.0115 55.421 55.3639 50.5572 55.3639 50.5572" fill="#FFC10D"/>
<path d="M36.5683 23.9434C43.1707 23.9434 48.5456 18.5683 48.5456 11.9661C48.5456 5.36383 43.1705 0 36.5683 0C29.9661 0 24.591 5.37509 24.591 11.9773C24.591 18.5795 29.9659 23.9434 36.5683 23.9434ZM36.5683 3.8296C41.0684 3.8296 44.7162 7.4887 44.7162 11.9775C44.7162 16.4663 41.0571 20.1254 36.5683 20.1254C32.0795 20.1254 28.4204 16.4663 28.4204 11.9775C28.4204 7.4887 32.0683 3.8296 36.5683 3.8296Z" fill="#194F82"/>
<path d="M36.5683 3.82961C32.0683 3.82961 28.4204 7.4887 28.4204 11.9775C28.4204 16.4663 32.0795 20.1254 36.5683 20.1254C41.0571 20.1254 44.7162 16.4663 44.7162 11.9775C44.7162 7.4887 41.0684 3.82961 36.5683 3.82961Z" fill="#FFC10D"/>
<path d="M65.3072 49.2731V43.2958H62.0118C60.6822 43.2958 59.5913 44.3867 59.5913 45.7164V46.8528C59.5913 48.1824 60.6822 49.2733 62.0118 49.2733H65.3072V49.2731Z" fill="white"/>
<path d="M13.5339 46.864V45.7276C13.5339 44.398 12.443 43.3071 11.1134 43.3071H7.82943V49.2844H11.1248C12.4544 49.2731 13.5339 48.1936 13.5339 46.864Z" fill="white"/>
<path d="M65.3072 39.4662H63.8414L64.5345 29.8639C64.5913 29.1479 64.239 28.4661 63.6141 28.0797C55.6367 23.2388 45.1708 23.8411 36.5571 29.5115C27.9548 23.8523 17.4774 23.2501 9.50007 28.0797C8.88641 28.4434 8.53414 29.1365 8.57967 29.8639L9.27278 39.4662H7.8296C5.71599 39.4662 4 41.1935 4 43.2958V49.2731C4 51.3867 5.72724 53.1027 7.8296 53.1027H10.2614C10.6022 57.8074 10.9432 62.4892 11.2841 67.1938C11.375 68.6256 13.2159 69.7052 14.5456 68.4212C20.5114 62.4894 29.1934 60.7507 35.6708 64.2052C36.3753 64.4892 36.9663 64.4551 37.4776 64.2052C43.9549 60.7393 52.6482 62.4779 58.6029 68.4212C59.9211 69.7849 61.8756 68.4779 61.8643 67.1938C62.1939 62.4892 62.5462 57.8074 62.887 53.1027H65.3188C67.4324 53.1027 69.1484 51.3755 69.1484 49.2731V43.2958C69.1366 41.1935 67.4323 39.4662 65.3072 39.4662ZM13.5339 46.864C13.5339 48.1937 12.443 49.2846 11.1134 49.2846H7.82943V43.3072H11.1248C12.4544 43.3072 13.5454 44.3982 13.5454 45.7278V46.8642L13.5339 46.864ZM34.6477 59.6141C28.2614 57.4776 20.8068 58.8299 14.8294 63.1596C14.5681 59.5914 14.3181 56.0118 14.0567 52.4436V52.3753C16.0227 51.33 17.375 49.2503 17.375 46.8639V45.7274C17.375 43.0002 15.6136 40.6705 13.159 39.8297L12.5112 30.807C19.1363 27.3411 27.6136 28.1138 34.6477 32.8411V59.6141ZM58.307 63.1596C52.3297 58.8301 44.8751 57.4778 38.4888 59.6141V48.2049H42.2616C43.3184 48.2049 44.182 47.3527 44.182 46.2845C44.182 45.2162 43.3298 44.3641 42.2616 44.3641H38.4888V40.8981H46.8978C47.9547 40.8981 48.8183 40.0459 48.8183 38.9777C48.8183 37.9209 47.9659 37.0573 46.8978 37.0573H38.5V32.8186C45.5455 28.0913 54.0228 27.3186 60.6365 30.7959L59.9887 39.8187C57.5455 40.6596 55.7728 42.9891 55.7728 45.7163V46.8528C55.7728 49.2392 57.1136 51.3073 59.091 52.3643C59.0912 52.3755 58.5572 59.6823 58.307 63.1596ZM62.0116 49.2731C60.682 49.2731 59.5911 48.1822 59.5911 46.8526V45.7162C59.5911 44.3866 60.682 43.2956 62.0116 43.2956H65.307V49.273H62.0116V49.2731Z" fill="#194F82"/>
</g>
<defs>
<filter id="filter0_d_1_648" x="0" y="0" width="73.1484" height="77.0002" filterUnits="userSpaceOnUse" color-interpolation-filters="sRGB">
<feFlood flood-opacity="0" result="BackgroundImageFix"/>
<feColorMatrix in="SourceAlpha" type="matrix" values="0 0 0 0 0 0 0 0 0 0 0 0 0 0 0 0 0 0 127 0" result="hardAlpha"/>
<feOffset dy="4"/>
<feGaussianBlur stdDeviation="2"/>
<feComposite in2="hardAlpha" operator="out"/>
<feColorMatrix type="matrix" values="0 0 0 0 0 0 0 0 0 0 0 0 0 0 0 0 0 0 0.25 0"/>
<feBlend mode="normal" in2="BackgroundImageFix" result="effect1_dropShadow_1_648"/>
<feBlend mode="normal" in="SourceGraphic" in2="effect1_dropShadow_1_648" result="shape"/>
</filter>
</defs>
</svg>
