<svg width="24" height="25" viewBox="0 0 24 25" fill="none" xmlns="http://www.w3.org/2000/svg">
<path d="M21 7.12988C20.98 7.12988 20.95 7.12988 20.92 7.12988C15.63 6.59988 10.35 6.39988 5.12004 6.92988L3.08004 7.12988C2.66004 7.16988 2.29004 6.86988 2.25004 6.44988C2.21004 6.02988 2.51004 5.66988 2.92004 5.62988L4.96004 5.42988C10.28 4.88988 15.67 5.09988 21.07 5.62988C21.48 5.66988 21.78 6.03988 21.74 6.44988C21.71 6.83988 21.38 7.12988 21 7.12988Z" fill="#F25B2C"/>
<path d="M8.50001 6.1199C8.46001 6.1199 8.42001 6.1199 8.37001 6.1099C7.97001 6.0399 7.69001 5.6499 7.76001 5.2499L7.98001 3.9399C8.14001 2.9799 8.36001 1.6499 10.69 1.6499H13.31C15.65 1.6499 15.87 3.0299 16.02 3.9499L16.24 5.2499C16.31 5.6599 16.03 6.0499 15.63 6.1099C15.22 6.1799 14.83 5.8999 14.77 5.4999L14.55 4.1999C14.41 3.3299 14.38 3.1599 13.32 3.1599H10.7C9.64001 3.1599 9.62001 3.2999 9.47001 4.1899L9.24001 5.4899C9.18001 5.8599 8.86001 6.1199 8.50001 6.1199Z" fill="#F25B2C"/>
<path d="M15.21 23.15H8.79002C5.30002 23.15 5.16002 21.22 5.05002 19.66L4.40002 9.58998C4.37002 9.17998 4.69002 8.81998 5.10002 8.78998C5.52002 8.76998 5.87002 9.07998 5.90002 9.48998L6.55002 19.56C6.66002 21.08 6.70002 21.65 8.79002 21.65H15.21C17.31 21.65 17.35 21.08 17.45 19.56L18.1 9.48998C18.13 9.07998 18.49 8.76998 18.9 8.78998C19.31 8.81998 19.63 9.16998 19.6 9.58998L18.95 19.66C18.84 21.22 18.7 23.15 15.21 23.15Z" fill="#F25B2C"/>
<path d="M13.66 17.6499H10.33C9.91996 17.6499 9.57996 17.3099 9.57996 16.8999C9.57996 16.4899 9.91996 16.1499 10.33 16.1499H13.66C14.07 16.1499 14.41 16.4899 14.41 16.8999C14.41 17.3099 14.07 17.6499 13.66 17.6499Z" fill="#F25B2C"/>
<path d="M14.5 13.6499H9.5C9.09 13.6499 8.75 13.3099 8.75 12.8999C8.75 12.4899 9.09 12.1499 9.5 12.1499H14.5C14.91 12.1499 15.25 12.4899 15.25 12.8999C15.25 13.3099 14.91 13.6499 14.5 13.6499Z" fill="#F25B2C"/>
</svg>
