<svg width="64" height="63" viewBox="0 0 64 63" fill="none" xmlns="http://www.w3.org/2000/svg">
<circle cx="30.5968" cy="37.1273" r="25.3969" fill="#FFDA7B"/>
<path fill-rule="evenodd" clip-rule="evenodd" d="M11.4376 38.5234C11.3241 38.5234 11.2322 38.6154 11.2322 38.7288V39.7556H10.2054C10.0919 39.7556 10 39.8476 10 39.961C10 40.0744 10.0919 40.1664 10.2054 40.1664H11.2322V41.1932C11.2322 41.3066 11.3241 41.3986 11.4376 41.3986C11.551 41.3986 11.6429 41.3066 11.6429 41.1932V40.1664H12.6698C12.7832 40.1664 12.8751 40.0744 12.8751 39.961C12.8751 39.8476 12.7832 39.7556 12.6698 39.7556H11.6429V38.7288C11.6429 38.6154 11.551 38.5234 11.4376 38.5234Z" fill="white"/>
<path fill-rule="evenodd" clip-rule="evenodd" d="M52.6292 55.8314C52.4909 55.6789 52.2666 55.6789 52.1282 55.8314L50.8757 57.2121L49.6233 55.8314C49.4849 55.6789 49.2606 55.6789 49.1223 55.8314C48.9839 55.9839 48.9839 56.2312 49.1223 56.3837L50.3747 57.7644L49.1223 59.145C48.9839 59.2975 48.9839 59.5448 49.1223 59.6973C49.2606 59.8498 49.4849 59.8498 49.6233 59.6973L50.8757 58.3166L52.1282 59.6973C52.2666 59.8498 52.4909 59.8498 52.6292 59.6973C52.7675 59.5448 52.7675 59.2975 52.6292 59.145L51.3767 57.7644L52.6292 56.3837C52.7675 56.2312 52.7675 55.9839 52.6292 55.8314Z" fill="#F9B49E"/>
<path fill-rule="evenodd" clip-rule="evenodd" d="M3 28.7246C2.76331 28.7246 2.57143 28.8845 2.57143 29.0818V30.8675H0.428571C0.191878 30.8675 0 31.0274 0 31.2246C0 31.4219 0.191878 31.5818 0.428572 31.5818H2.57143V33.3675C2.57143 33.5647 2.76331 33.7246 3 33.7246C3.23669 33.7246 3.42857 33.5647 3.42857 33.3675V31.5818H5.57143C5.80812 31.5818 6 31.4219 6 31.2246C6 31.0274 5.80812 30.8675 5.57143 30.8675H3.42857V29.0818C3.42857 28.8845 3.23669 28.7246 3 28.7246Z" fill="#7678F5"/>
<path fill-rule="evenodd" clip-rule="evenodd" d="M18.2474 55.1716C18.1563 55.0711 18.0086 55.0711 17.9175 55.1716L17.0925 56.081L16.2676 55.1716C16.1765 55.0711 16.0287 55.0711 15.9376 55.1716C15.8465 55.272 15.8465 55.4349 15.9376 55.5353L16.7626 56.4447L15.9376 57.3541C15.8465 57.4545 15.8465 57.6174 15.9376 57.7178C16.0287 57.8183 16.1765 57.8183 16.2676 57.7178L17.0925 56.8085L17.9175 57.7178C18.0086 57.8183 18.1563 57.8183 18.2474 57.7178C18.3386 57.6174 18.3386 57.4545 18.2474 57.3541L17.4225 56.4447L18.2474 55.5353C18.3386 55.4349 18.3386 55.272 18.2474 55.1716Z" fill="white"/>
<circle cx="7.59576" cy="18.918" r="1.43756" fill="#A9AAF5"/>
<circle cx="52.5582" cy="39.4818" r="0.958373" fill="white"/>
<path fill-rule="evenodd" clip-rule="evenodd" d="M14.5319 19.5675L39.8511 15.1644C41.2494 14.9212 42.583 15.8741 42.8297 17.2927L48.6366 50.6844C48.8833 52.1029 47.9497 53.4501 46.5514 53.6933L21.2322 58.0963C19.8339 58.3395 18.5003 57.3867 18.2536 55.9681L12.4467 22.5764C12.2 21.1578 13.1336 19.8107 14.5319 19.5675Z" fill="white"/>
<path d="M20.3769 56.922C44.1697 47.4919 40.9307 40.1163 41.5648 17.5128L47.2524 50.2183C47.4416 51.3065 46.7128 52.3421 45.6246 52.5314L20.3769 56.922Z" fill="#046B21" fill-opacity="0.2"/>
<path d="M39.4785 20.523L17.9573 24.2656L18.404 26.8342L39.9252 23.0916L39.4785 20.523Z" fill="#4D4D4D" fill-opacity="0.2"/>
<path d="M40.3719 25.6597L18.8506 29.4023L19.2973 31.9709L40.8185 28.2283L40.3719 25.6597Z" fill="#4D4D4D" fill-opacity="0.2"/>
<path d="M41.2652 30.7964L19.7439 34.5391L20.1906 37.1077L41.7119 33.365L41.2652 30.7964Z" fill="#4D4D4D" fill-opacity="0.2"/>
<path d="M42.1585 35.9332L20.6372 39.6758L21.0839 42.2444L42.6052 38.5017L42.1585 35.9332Z" fill="#4D4D4D" fill-opacity="0.2"/>
<path d="M43.052 41.0718L21.5308 44.8145L21.9774 47.383L43.4987 43.6404L43.052 41.0718Z" fill="#4D4D4D" fill-opacity="0.2"/>
<path d="M43.9451 46.2066L22.4238 49.9492L22.8705 52.5178L44.3918 48.7752L43.9451 46.2066Z" fill="#4D4D4D" fill-opacity="0.2"/>
<path fill-rule="evenodd" clip-rule="evenodd" d="M40.4691 18.7182C40.3745 18.1741 39.8566 17.8097 39.3125 17.9043L15.9638 21.9648C15.4197 22.0594 15.0553 22.5772 15.1499 23.1213L20.6142 54.5425C20.7088 55.0867 21.2266 55.451 21.7707 55.3564L45.1195 51.296C45.6636 51.2014 46.028 50.6836 45.9333 50.1395L40.4691 18.7182ZM14.5319 19.5675L39.8511 15.1644C41.2494 14.9212 42.583 15.8741 42.8297 17.2927L48.6366 50.6844C48.8833 52.1029 47.9497 53.4501 46.5514 53.6933L21.2322 58.0963C19.8339 58.3395 18.5003 57.3867 18.2536 55.9681L12.4467 22.5764C12.2 21.1578 13.1336 19.8107 14.5319 19.5675Z" fill="#3B8650"/>
<circle cx="37.2353" cy="13.9585" r="9.05279" transform="rotate(2.58986 37.2353 13.9585)" fill="white"/>
<path fill-rule="evenodd" clip-rule="evenodd" d="M37.5627 6.72373C36.9919 6.69791 36.5082 7.13972 36.4824 7.71053L36.2487 12.8783L31.0809 12.6445C30.5101 12.6187 30.0265 13.0605 30.0006 13.6313C29.9748 14.2021 30.4166 14.6858 30.9874 14.7116L36.1552 14.9454L35.9214 20.1131C35.8956 20.6839 36.3374 21.1676 36.9082 21.1934C37.479 21.2192 37.9627 20.7774 37.9885 20.2066L38.2223 15.0389L43.39 15.2726C43.9608 15.2984 44.4445 14.8566 44.4703 14.2858C44.4961 13.715 44.0543 13.2313 43.4835 13.2055L38.3158 12.9718L38.5495 7.80403C38.5753 7.23322 38.1335 6.74955 37.5627 6.72373Z" fill="#7678F5"/>
<g filter="url(#filter0_d_1854_16518)">
<circle cx="47.4825" cy="27.2051" r="9.05279" transform="rotate(9.96211 47.4825 27.2051)" fill="white"/>
<path d="M46.6428 26.0075L41.5478 25.1126C40.985 25.0137 40.4487 25.3898 40.3498 25.9526C40.251 26.5154 40.6271 27.0517 41.1898 27.1506L46.2849 28.0455L48.3229 28.4035L53.4179 29.2984C53.9807 29.3972 54.517 29.0211 54.6159 28.4584C54.7147 27.8956 54.3387 27.3592 53.7759 27.2604L48.6808 26.3655L46.6428 26.0075Z" fill="#FF4E4E"/>
</g>
<defs>
<filter id="filter0_d_1854_16518" x="35.4282" y="14.1504" width="26.1086" height="26.1094" filterUnits="userSpaceOnUse" color-interpolation-filters="sRGB">
<feFlood flood-opacity="0" result="BackgroundImageFix"/>
<feColorMatrix in="SourceAlpha" type="matrix" values="0 0 0 0 0 0 0 0 0 0 0 0 0 0 0 0 0 0 127 0" result="hardAlpha"/>
<feOffset dx="1"/>
<feGaussianBlur stdDeviation="2"/>
<feComposite in2="hardAlpha" operator="out"/>
<feColorMatrix type="matrix" values="0 0 0 0 0 0 0 0 0 0 0 0 0 0 0 0 0 0 0.25 0"/>
<feBlend mode="normal" in2="BackgroundImageFix" result="effect1_dropShadow_1854_16518"/>
<feBlend mode="normal" in="SourceGraphic" in2="effect1_dropShadow_1854_16518" result="shape"/>
</filter>
</defs>
</svg>
