<svg width="16" height="16" viewBox="0 0 16 16" fill="none" xmlns="http://www.w3.org/2000/svg">
<path fill-rule="evenodd" clip-rule="evenodd" d="M2.1665 4.66699C2.1665 4.39085 2.39036 4.16699 2.6665 4.16699H10.6665C10.9426 4.16699 11.1665 4.39085 11.1665 4.66699C11.1665 4.94313 10.9426 5.16699 10.6665 5.16699H2.6665C2.39036 5.16699 2.1665 4.94313 2.1665 4.66699ZM11.9998 6.83366C12.276 6.83366 12.4998 7.05752 12.4998 7.33366V11.4599L13.6463 10.3134C13.8415 10.1182 14.1581 10.1182 14.3534 10.3134C14.5487 10.5087 14.5487 10.8253 14.3534 11.0205L12.3534 13.0205C12.1581 13.2158 11.8415 13.2158 11.6463 13.0205L9.64628 11.0205C9.45102 10.8253 9.45102 10.5087 9.64628 10.3134C9.84155 10.1182 10.1581 10.1182 10.3534 10.3134L11.4998 11.4599V7.33366C11.4998 7.05752 11.7237 6.83366 11.9998 6.83366ZM2.1665 8.00033C2.1665 7.72418 2.39036 7.50033 2.6665 7.50033H8.6665C8.94265 7.50033 9.1665 7.72418 9.1665 8.00033C9.1665 8.27647 8.94265 8.50033 8.6665 8.50033H2.6665C2.39036 8.50033 2.1665 8.27647 2.1665 8.00033ZM2.1665 11.3337C2.1665 11.0575 2.39036 10.8337 2.6665 10.8337H6.6665C6.94265 10.8337 7.1665 11.0575 7.1665 11.3337C7.1665 11.6098 6.94265 11.8337 6.6665 11.8337H2.6665C2.39036 11.8337 2.1665 11.6098 2.1665 11.3337Z" fill="white"/>
</svg>
