<svg width="25" height="24" viewBox="0 0 25 24" fill="none" xmlns="http://www.w3.org/2000/svg">
<path d="M12.5 22.25C6.84614 22.25 2.25 17.6539 2.25 12C2.25 6.34614 6.84614 1.75 12.5 1.75C18.1539 1.75 22.75 6.34614 22.75 12C22.75 17.6539 18.1539 22.25 12.5 22.25ZM12.5 2.25C7.12386 2.25 2.75 6.62386 2.75 12C2.75 17.3761 7.12386 21.75 12.5 21.75C17.8761 21.75 22.25 17.3761 22.25 12C22.25 6.62386 17.8761 2.25 12.5 2.25Z" fill="#0F1834" stroke="#0F1834"/>
<path d="M11.0799 15.5796C10.8799 15.5796 10.6899 15.4996 10.5499 15.3596L7.71994 12.5296C7.42994 12.2396 7.42994 11.7596 7.71994 11.4696C8.00994 11.1796 8.48994 11.1796 8.77994 11.4696L11.0799 13.7696L16.2199 8.62961C16.5099 8.33961 16.9899 8.33961 17.2799 8.62961C17.5699 8.91961 17.5699 9.39961 17.2799 9.68961L11.6099 15.3596C11.4699 15.4996 11.2799 15.5796 11.0799 15.5796Z" fill="#0F1834"/>
</svg>
