<svg width="17" height="16" viewBox="0 0 17 16" fill="none" xmlns="http://www.w3.org/2000/svg">
<path d="M7.89992 15.1663H5.09992C2.49325 15.1663 1.33325 14.0063 1.33325 11.3997V8.59967C1.33325 5.99301 2.49325 4.83301 5.09992 4.83301H7.89992C10.5066 4.83301 11.6666 5.99301 11.6666 8.59967V11.3997C11.6666 14.0063 10.5066 15.1663 7.89992 15.1663ZM5.09992 5.83301C3.03325 5.83301 2.33325 6.53301 2.33325 8.59967V11.3997C2.33325 13.4663 3.03325 14.1663 5.09992 14.1663H7.89992C9.96659 14.1663 10.6666 13.4663 10.6666 11.3997V8.59967C10.6666 6.53301 9.96659 5.83301 7.89992 5.83301H5.09992Z" fill="#189400"/>
<path d="M11.8999 11.1663H11.1666C10.8933 11.1663 10.6666 10.9397 10.6666 10.6663V8.59967C10.6666 6.53301 9.96659 5.83301 7.89992 5.83301H5.83325C5.55992 5.83301 5.33325 5.60634 5.33325 5.33301V4.59967C5.33325 1.99301 6.49325 0.833008 9.09992 0.833008H11.8999C14.5066 0.833008 15.6666 1.99301 15.6666 4.59967V7.39967C15.6666 10.0063 14.5066 11.1663 11.8999 11.1663ZM11.6666 10.1663H11.8999C13.9666 10.1663 14.6666 9.46634 14.6666 7.39967V4.59967C14.6666 2.53301 13.9666 1.83301 11.8999 1.83301H9.09992C7.03325 1.83301 6.33325 2.53301 6.33325 4.59967V4.83301H7.89992C10.5066 4.83301 11.6666 5.99301 11.6666 8.59967V10.1663Z" fill="#189400"/>
</svg>
