<svg width="16" height="16" viewBox="0 0 16 16" fill="none" xmlns="http://www.w3.org/2000/svg">
<path fill-rule="evenodd" clip-rule="evenodd" d="M11.4798 4.14645C11.675 3.95118 11.9916 3.95118 12.1869 4.14645L14.1869 6.14645C14.3821 6.34171 14.3821 6.65829 14.1869 6.85355C13.9916 7.04881 13.675 7.04881 13.4798 6.85355L12.3333 5.70711V9.83333C12.3333 10.1095 12.1095 10.3333 11.8333 10.3333C11.5572 10.3333 11.3333 10.1095 11.3333 9.83333V5.70711L10.1869 6.85355C9.99162 7.04882 9.67504 7.04882 9.47978 6.85355C9.28452 6.65829 9.28452 6.34171 9.47978 6.14645L11.4798 4.14645ZM2 5.83333C2 5.55719 2.22386 5.33333 2.5 5.33333H6.5C6.77614 5.33333 7 5.55719 7 5.83333C7 6.10948 6.77614 6.33333 6.5 6.33333H2.5C2.22386 6.33333 2 6.10948 2 5.83333ZM2 9.16667C2 8.89052 2.22386 8.66667 2.5 8.66667H8.5C8.77614 8.66667 9 8.89052 9 9.16667C9 9.44281 8.77614 9.66667 8.5 9.66667H2.5C2.22386 9.66667 2 9.44281 2 9.16667ZM2 12.5C2 12.2239 2.22386 12 2.5 12H10.5C10.7761 12 11 12.2239 11 12.5C11 12.7761 10.7761 13 10.5 13H2.5C2.22386 13 2 12.7761 2 12.5Z" fill="white"/>
</svg>
