<svg width="64" height="64" viewBox="0 0 64 64" fill="none" xmlns="http://www.w3.org/2000/svg">
<circle cx="30.5968" cy="38.1273" r="25.3969" fill="#FFDA7B"/>
<path fill-rule="evenodd" clip-rule="evenodd" d="M11.4376 39.5234C11.3241 39.5234 11.2322 39.6154 11.2322 39.7288V40.7556H10.2054C10.0919 40.7556 10 40.8476 10 40.961C10 41.0744 10.0919 41.1664 10.2054 41.1664H11.2322V42.1932C11.2322 42.3066 11.3241 42.3986 11.4376 42.3986C11.551 42.3986 11.6429 42.3066 11.6429 42.1932V41.1664H12.6698C12.7832 41.1664 12.8751 41.0744 12.8751 40.961C12.8751 40.8476 12.7832 40.7556 12.6698 40.7556H11.6429V39.7288C11.6429 39.6154 11.551 39.5234 11.4376 39.5234Z" fill="white"/>
<path fill-rule="evenodd" clip-rule="evenodd" d="M52.6292 56.8314C52.4909 56.6789 52.2666 56.6789 52.1282 56.8314L50.8757 58.2121L49.6233 56.8314C49.4849 56.6789 49.2606 56.6789 49.1223 56.8314C48.9839 56.9839 48.9839 57.2312 49.1223 57.3837L50.3747 58.7644L49.1223 60.145C48.9839 60.2975 48.9839 60.5448 49.1223 60.6973C49.2606 60.8498 49.4849 60.8498 49.6233 60.6973L50.8757 59.3166L52.1282 60.6973C52.2666 60.8498 52.4909 60.8498 52.6292 60.6973C52.7675 60.5448 52.7675 60.2975 52.6292 60.145L51.3767 58.7644L52.6292 57.3837C52.7675 57.2312 52.7675 56.9839 52.6292 56.8314Z" fill="#F9B49E"/>
<path fill-rule="evenodd" clip-rule="evenodd" d="M3 29.7246C2.76331 29.7246 2.57143 29.8845 2.57143 30.0818V31.8675H0.428571C0.191878 31.8675 0 32.0274 0 32.2246C0 32.4219 0.191878 32.5818 0.428572 32.5818H2.57143V34.3675C2.57143 34.5647 2.76331 34.7246 3 34.7246C3.23669 34.7246 3.42857 34.5647 3.42857 34.3675V32.5818H5.57143C5.80812 32.5818 6 32.4219 6 32.2246C6 32.0274 5.80812 31.8675 5.57143 31.8675H3.42857V30.0818C3.42857 29.8845 3.23669 29.7246 3 29.7246Z" fill="#7678F5"/>
<path fill-rule="evenodd" clip-rule="evenodd" d="M18.2474 56.1716C18.1563 56.0711 18.0086 56.0711 17.9175 56.1716L17.0925 57.081L16.2676 56.1716C16.1765 56.0711 16.0287 56.0711 15.9376 56.1716C15.8465 56.272 15.8465 56.4349 15.9376 56.5353L16.7626 57.4447L15.9376 58.3541C15.8465 58.4545 15.8465 58.6174 15.9376 58.7178C16.0287 58.8183 16.1765 58.8183 16.2676 58.7178L17.0925 57.8085L17.9175 58.7178C18.0086 58.8183 18.1563 58.8183 18.2474 58.7178C18.3386 58.6174 18.3386 58.4545 18.2474 58.3541L17.4225 57.4447L18.2474 56.5353C18.3386 56.4349 18.3386 56.272 18.2474 56.1716Z" fill="white"/>
<circle cx="7.59576" cy="19.918" r="1.43756" fill="#A9AAF5"/>
<circle cx="52.5582" cy="40.4818" r="0.958373" fill="white"/>
<path fill-rule="evenodd" clip-rule="evenodd" d="M14.5319 20.5675L39.8511 16.1644C41.2494 15.9212 42.583 16.8741 42.8297 18.2927L48.6366 51.6844C48.8833 53.1029 47.9497 54.4501 46.5514 54.6933L21.2322 59.0963C19.8339 59.3395 18.5003 58.3867 18.2536 56.9681L12.4467 23.5764C12.2 22.1578 13.1336 20.8107 14.5319 20.5675Z" fill="white"/>
<path d="M20.3769 57.922C44.1697 48.4919 40.9307 41.1163 41.5648 18.5128L47.2524 51.2183C47.4416 52.3065 46.7128 53.3421 45.6246 53.5314L20.3769 57.922Z" fill="#046B21" fill-opacity="0.2"/>
<path d="M39.4785 21.523L17.9573 25.2656L18.404 27.8342L39.9252 24.0916L39.4785 21.523Z" fill="#4D4D4D" fill-opacity="0.2"/>
<path d="M40.3719 26.6597L18.8506 30.4023L19.2973 32.9709L40.8185 29.2283L40.3719 26.6597Z" fill="#4D4D4D" fill-opacity="0.2"/>
<path d="M41.2652 31.7964L19.7439 35.5391L20.1906 38.1077L41.7119 34.365L41.2652 31.7964Z" fill="#4D4D4D" fill-opacity="0.2"/>
<path d="M42.1585 36.9332L20.6372 40.6758L21.0839 43.2444L42.6052 39.5017L42.1585 36.9332Z" fill="#4D4D4D" fill-opacity="0.2"/>
<path d="M43.052 42.0718L21.5308 45.8145L21.9774 48.383L43.4987 44.6404L43.052 42.0718Z" fill="#4D4D4D" fill-opacity="0.2"/>
<path d="M43.9451 47.2066L22.4238 50.9492L22.8705 53.5178L44.3918 49.7752L43.9451 47.2066Z" fill="#4D4D4D" fill-opacity="0.2"/>
<path fill-rule="evenodd" clip-rule="evenodd" d="M40.4691 19.7182C40.3745 19.1741 39.8566 18.8097 39.3125 18.9043L15.9638 22.9648C15.4197 23.0594 15.0553 23.5772 15.1499 24.1213L20.6142 55.5425C20.7088 56.0867 21.2266 56.451 21.7707 56.3564L45.1195 52.296C45.6636 52.2014 46.028 51.6836 45.9333 51.1395L40.4691 19.7182ZM14.5319 20.5675L39.8511 16.1644C41.2494 15.9212 42.583 16.8741 42.8297 18.2927L48.6366 51.6844C48.8833 53.1029 47.9497 54.4501 46.5514 54.6933L21.2322 59.0963C19.8339 59.3395 18.5003 58.3867 18.2536 56.9681L12.4467 23.5764C12.2 22.1578 13.1336 20.8107 14.5319 20.5675Z" fill="#3B8650"/>
<circle cx="37.2353" cy="14.9585" r="9.05279" transform="rotate(2.58986 37.2353 14.9585)" fill="white"/>
<path fill-rule="evenodd" clip-rule="evenodd" d="M37.5627 7.72373C36.9919 7.69791 36.5082 8.13972 36.4824 8.71053L36.2487 13.8783L31.0809 13.6445C30.5101 13.6187 30.0265 14.0605 30.0006 14.6313C29.9748 15.2021 30.4166 15.6858 30.9874 15.7116L36.1552 15.9454L35.9214 21.1131C35.8956 21.6839 36.3374 22.1676 36.9082 22.1934C37.479 22.2192 37.9627 21.7774 37.9885 21.2066L38.2223 16.0389L43.39 16.2726C43.9608 16.2984 44.4445 15.8566 44.4703 15.2858C44.4961 14.715 44.0543 14.2313 43.4835 14.2055L38.3158 13.9718L38.5495 8.80403C38.5753 8.23322 38.1335 7.74955 37.5627 7.72373Z" fill="#7678F5"/>
<g filter="url(#filter0_d_1854_16517)">
<circle cx="47.4825" cy="28.2051" r="9.05279" transform="rotate(9.96211 47.4825 28.2051)" fill="white"/>
<path d="M46.6428 27.0075L41.5478 26.1126C40.985 26.0137 40.4487 26.3898 40.3498 26.9526C40.251 27.5154 40.6271 28.0517 41.1898 28.1506L46.2849 29.0455L48.3229 29.4035L53.4179 30.2984C53.9807 30.3972 54.517 30.0211 54.6159 29.4584C54.7147 28.8956 54.3387 28.3592 53.7759 28.2604L48.6808 27.3655L46.6428 27.0075Z" fill="#FF4E4E"/>
</g>
<defs>
<filter id="filter0_d_1854_16517" x="35.4282" y="15.1504" width="26.1086" height="26.1094" filterUnits="userSpaceOnUse" color-interpolation-filters="sRGB">
<feFlood flood-opacity="0" result="BackgroundImageFix"/>
<feColorMatrix in="SourceAlpha" type="matrix" values="0 0 0 0 0 0 0 0 0 0 0 0 0 0 0 0 0 0 127 0" result="hardAlpha"/>
<feOffset dx="1"/>
<feGaussianBlur stdDeviation="2"/>
<feComposite in2="hardAlpha" operator="out"/>
<feColorMatrix type="matrix" values="0 0 0 0 0 0 0 0 0 0 0 0 0 0 0 0 0 0 0.25 0"/>
<feBlend mode="normal" in2="BackgroundImageFix" result="effect1_dropShadow_1854_16517"/>
<feBlend mode="normal" in="SourceGraphic" in2="effect1_dropShadow_1854_16517" result="shape"/>
</filter>
</defs>
</svg>
