<svg width="24" height="24" viewBox="0 0 24 24" fill="none" xmlns="http://www.w3.org/2000/svg">
<path d="M15.2376 1.72953L15.1076 1.72953C10.6676 1.72953 8.52758 3.47953 8.15757 7.39953C8.11757 7.80953 8.41758 8.17953 8.83758 8.21953C9.23758 8.25953 9.61757 7.94953 9.65757 7.53953C9.94758 4.39953 11.4276 3.22953 15.1176 3.22953L15.2476 3.22953C19.3176 3.22953 20.7576 4.66953 20.7576 8.73953L20.7576 15.2595C20.7576 19.3295 19.3176 20.7695 15.2476 20.7695L15.1176 20.7695C11.4076 20.7695 9.92757 19.5795 9.65757 16.3795C9.60757 15.9695 9.25757 15.6595 8.83757 15.6995C8.41757 15.7295 8.11757 16.0995 8.14757 16.5095C8.48757 20.4895 10.6376 22.2695 15.1076 22.2695L15.2376 22.2695C20.1476 22.2695 22.2476 20.1695 22.2476 15.2595L22.2476 8.73953C22.2476 3.82953 20.1476 1.72953 15.2376 1.72953Z" fill="#F25B2C"/>
<path d="M14.9974 11.25L3.61743 11.25C3.20743 11.25 2.86743 11.59 2.86743 12C2.86743 12.41 3.20743 12.75 3.61743 12.75L14.9974 12.75C15.4074 12.75 15.7474 12.41 15.7474 12C15.7474 11.59 15.4074 11.25 14.9974 11.25Z" fill="#F25B2C"/>
<path d="M5.8475 7.90016C5.6575 7.90016 5.4675 7.97016 5.3175 8.12016L1.9675 11.4702C1.6775 11.7602 1.6775 12.2402 1.9675 12.5302L5.3175 15.8802C5.6075 16.1702 6.0875 16.1702 6.3775 15.8802C6.6675 15.5902 6.6675 15.1102 6.3775 14.8202L3.5575 12.0002L6.3775 9.18016C6.6675 8.89016 6.6675 8.41016 6.3775 8.12016C6.2375 7.97016 6.0375 7.90016 5.8475 7.90016Z" fill="#F25B2C"/>
</svg>