<svg width="64" height="64" viewBox="0 0 64 64" fill="none" xmlns="http://www.w3.org/2000/svg">
<circle cx="28.5961" cy="35.4037" r="25.3969" fill="#AEDAA6"/>
<path fill-rule="evenodd" clip-rule="evenodd" d="M9.43756 36.7998C9.32414 36.7998 9.23219 36.8918 9.23219 37.0052V38.032H8.20537C8.09195 38.032 8 38.1239 8 38.2374C8 38.3508 8.09195 38.4427 8.20537 38.4427H9.23219V39.4696C9.23219 39.583 9.32414 39.6749 9.43756 39.6749C9.55098 39.6749 9.64292 39.583 9.64292 39.4696V38.4427H10.6698C10.7832 38.4427 10.8751 38.3508 10.8751 38.2374C10.8751 38.1239 10.7832 38.032 10.6698 38.032H9.64292V37.0052C9.64292 36.8917 9.55098 36.7998 9.43756 36.7998Z" fill="white"/>
<path fill-rule="evenodd" clip-rule="evenodd" d="M50.6285 54.1087C50.4901 53.9562 50.2658 53.9562 50.1275 54.1087L48.875 55.4894L47.6225 54.1087C47.4842 53.9562 47.2599 53.9562 47.1215 54.1087C46.9832 54.2612 46.9832 54.5085 47.1215 54.661L48.374 56.0417L47.1215 57.4224C46.9832 57.5749 46.9832 57.8222 47.1215 57.9747C47.2599 58.1272 47.4842 58.1272 47.6225 57.9747L48.875 56.594L50.1275 57.9747C50.2658 58.1272 50.4901 58.1272 50.6285 57.9747C50.7668 57.8222 50.7668 57.5749 50.6285 57.4224L49.376 56.0417L50.6285 54.661C50.7668 54.5085 50.7668 54.2612 50.6285 54.1087Z" fill="#F9B49E"/>
<path fill-rule="evenodd" clip-rule="evenodd" d="M34.8732 3.2002C34.6463 3.2002 34.4624 3.41473 34.4624 3.67938V6.07531H32.4088C32.1819 6.07531 31.998 6.28985 31.998 6.5545C31.998 6.81915 32.1819 7.03369 32.4088 7.03369H34.4624V9.42962C34.4624 9.69426 34.6463 9.9088 34.8732 9.9088C35.1 9.9088 35.2839 9.69426 35.2839 9.42962V7.03369H37.3376C37.5644 7.03369 37.7483 6.81915 37.7483 6.5545C37.7483 6.28985 37.5644 6.07531 37.3376 6.07531H35.2839V3.67938C35.2839 3.41473 35.1 3.2002 34.8732 3.2002Z" fill="#7678F5"/>
<path fill-rule="evenodd" clip-rule="evenodd" d="M16.2467 53.4489C16.1556 53.3485 16.0079 53.3485 15.9167 53.4489L15.0918 54.3583L14.2669 53.4489C14.1757 53.3485 14.028 53.3485 13.9369 53.4489C13.8458 53.5494 13.8458 53.7122 13.9369 53.8127L14.7618 54.7221L13.9369 55.6314C13.8458 55.7319 13.8458 55.8947 13.9369 55.9952C14.028 56.0956 14.1757 56.0956 14.2669 55.9952L15.0918 55.0858L15.9167 55.9952C16.0079 56.0956 16.1556 56.0956 16.2467 55.9952C16.3378 55.8947 16.3378 55.7319 16.2467 55.6314L15.4218 54.7221L16.2467 53.8127C16.3378 53.7122 16.3378 53.5494 16.2467 53.4489Z" fill="white"/>
<circle cx="5.59576" cy="17.1944" r="1.43756" fill="#A9AAF5"/>
<circle cx="50.558" cy="37.7582" r="0.958373" fill="white"/>
<path fill-rule="evenodd" clip-rule="evenodd" d="M18.5699 14.8379H44.2691C45.6884 14.8379 46.839 16.0051 46.839 17.445V51.3378C46.839 52.7777 45.6884 53.945 44.2691 53.945H18.5699C17.1506 53.945 16 52.7777 16 51.3378V17.445C16 16.0051 17.1506 14.8379 18.5699 14.8379Z" fill="white"/>
<path d="M17.9277 52.6407C42.9844 47.4264 41.057 39.605 45.5543 17.4443V50.6407C45.5543 51.7453 44.6589 52.6407 43.5543 52.6407H17.9277Z" fill="#046B21" fill-opacity="0.2"/>
<path d="M42.9849 20.0527H21.1406V22.6599H42.9849V20.0527Z" fill="#4D4D4D" fill-opacity="0.2"/>
<path d="M42.9849 25.2676H21.1406V27.8747H42.9849V25.2676Z" fill="#4D4D4D" fill-opacity="0.2"/>
<path d="M42.9849 30.4805H21.1406V33.0876H42.9849V30.4805Z" fill="#4D4D4D" fill-opacity="0.2"/>
<path d="M42.9849 35.6953H21.1406V38.3025H42.9849V35.6953Z" fill="#4D4D4D" fill-opacity="0.2"/>
<path d="M42.9849 40.9102H21.1406V43.5173H42.9849V40.9102Z" fill="#4D4D4D" fill-opacity="0.2"/>
<path d="M42.9849 46.123H21.1406V48.7302H42.9849V46.123Z" fill="#4D4D4D" fill-opacity="0.2"/>
<path fill-rule="evenodd" clip-rule="evenodd" d="M44.2691 18.445C44.2691 17.8927 43.8213 17.445 43.2691 17.445H19.5699C19.0176 17.445 18.5699 17.8927 18.5699 18.445L18.5699 50.3379C18.5699 50.8901 19.0176 51.3379 19.5699 51.3379H43.2691C43.8213 51.3379 44.2691 50.8901 44.2691 50.3379V18.445ZM18.5699 14.8379H44.2691C45.6884 14.8379 46.839 16.0051 46.839 17.445V51.3379C46.839 52.7777 45.6884 53.945 44.2691 53.945H18.5699C17.1506 53.945 16 52.7777 16 51.3378V17.445C16 16.0051 17.1506 14.8379 18.5699 14.8379Z" fill="#3B8650"/>
<path fill-rule="evenodd" clip-rule="evenodd" d="M31.7733 44.55C31.8263 44.2643 31.9273 43.9928 32.1218 43.7486C32.8545 42.8343 34.4131 44.1584 34.878 44.7283C35.1852 45.1033 35.3361 45.8005 34.8008 46.1374C34.1441 46.5515 33.1212 47.0799 32.3595 47.3058C31.76 47.4836 31.6692 47.0644 31.6616 46.1137C31.6581 45.6141 31.6767 45.0642 31.7733 44.55Z" fill="#54666F"/>
<path fill-rule="evenodd" clip-rule="evenodd" d="M33.2573 45.4578C33.3713 45.328 33.4854 45.1981 33.5989 45.0663C33.8615 44.7614 34.2321 44.3621 34.6394 44.6972C34.9796 44.9792 34.8354 45.5063 34.5252 45.782C34.0261 46.2227 33.4948 46.5669 32.9057 46.8848C32.7121 46.99 32.3802 47.2506 32.1514 47.2476C31.8337 47.2435 31.9279 46.9382 32.0595 46.7909C32.2272 46.6044 32.395 46.4179 32.5647 46.2308C32.7959 45.9745 33.0266 45.7162 33.2567 45.4559L33.2573 45.4578Z" fill="#97A79F"/>
<path fill-rule="evenodd" clip-rule="evenodd" d="M40.5756 42.7906L34.7947 46.1352C34.7947 46.1352 33.6545 44.1567 31.8395 44.4019C31.6086 44.4331 32.8349 37.4575 32.8349 37.4575L37.9982 36.7207L40.68 41.6686L40.5756 42.7906Z" fill="url(#paint0_linear_2260_65466)"/>
<path fill-rule="evenodd" clip-rule="evenodd" d="M36.2452 37.6821C36.0538 37.9466 36.0143 38.2497 35.873 38.5363C36.4301 38.7088 36.8769 39.2856 36.816 39.8932C37.3102 39.8114 37.7255 39.7406 38.2107 39.9011C38.606 40.0313 39.3656 40.3507 39.4605 40.8023C39.5534 40.6677 39.6612 40.5395 39.7613 40.4071C40.6245 39.2744 41.451 38.1201 42.2475 36.9444C43.3907 35.2623 44.5365 33.5816 45.6977 31.9093C47.0065 30.0244 48.3133 28.1401 49.6097 26.2502C50.6807 24.6887 51.7517 23.1271 52.8309 21.5718C53.2606 20.9523 53.6893 20.3288 54.1186 19.7074C54.5302 19.1117 54.6139 18.4727 54.3017 18.2799L51.5867 16.6012C51.2745 16.4085 50.6901 16.7356 50.2758 17.3299L36.2442 37.6782L36.2452 37.6821Z" fill="#FFCA51"/>
<path fill-rule="evenodd" clip-rule="evenodd" d="M40.1561 39.4273C39.9879 39.6707 39.6472 39.9316 39.7673 40.2355C39.8672 40.4881 40.1396 40.6223 40.2251 40.9124C40.3815 41.4378 40.4044 42.1109 40.114 42.6126C40.6216 42.4052 40.9315 42.4135 41.2503 41.9525L57.3307 18.7988C57.7424 18.2031 57.826 17.5641 57.5138 17.3713C57.49 17.3568 55.1294 17.9753 54.9518 18.0489C54.7024 18.1524 54.5952 18.4844 54.1846 19.0756L40.1535 39.4259L40.1561 39.4273Z" fill="#FFE076"/>
<path fill-rule="evenodd" clip-rule="evenodd" d="M36.8703 37.322C36.6536 37.6333 36.5016 37.988 36.2678 38.285C35.6148 37.6401 34.1638 37.5613 33.4955 38.2835C33.6245 38.1433 33.2042 37.7675 33.1633 37.6545C33.0732 37.4055 33.2285 37.214 33.3709 37.007L49.3933 13.8186C49.805 13.2229 50.4551 12.9347 50.8443 13.176C50.8758 13.1948 51.5563 15.6957 51.5797 15.8934C51.6104 16.169 51.31 16.381 50.8999 16.9742L36.8682 37.3225L36.8703 37.322Z" fill="#F7F297"/>
<path fill-rule="evenodd" clip-rule="evenodd" d="M36.4662 37.615C36.2495 37.9263 36.0995 38.2805 35.8637 38.5781C35.2102 37.9312 33.7591 37.8524 33.0913 38.5766C33.2208 38.4383 32.8 38.0605 32.7591 37.9476C32.669 37.6986 32.8243 37.5071 32.9672 37.3021L48.9892 14.1117C49.4009 13.516 50.0509 13.2278 50.4401 13.4691C50.4717 13.4878 51.1521 15.9888 51.175 16.1845C51.2058 16.4601 50.9058 16.6741 50.4952 17.2653L36.4636 37.6136L36.4662 37.615Z" fill="#EB9A42"/>
<path fill-rule="evenodd" clip-rule="evenodd" d="M49.5084 13.0774C53.348 13.7331 55.5714 14.9923 57.9858 17.88C57.245 19.0405 56.8736 19.621 56.1329 20.7815C53.7185 17.8937 51.4951 16.6345 47.6575 15.9782C48.3983 14.8178 48.7676 14.2378 49.5109 13.0788L49.5084 13.0774Z" fill="url(#paint1_linear_2260_65466)"/>
<path fill-rule="evenodd" clip-rule="evenodd" d="M49.5561 12.9795C53.4247 13.6526 55.6687 14.923 58.1121 17.8281C57.3714 18.9886 57 19.5691 56.2592 20.7295C53.8159 17.8244 51.5718 16.554 47.7012 15.8815C48.4419 14.721 48.8154 14.14 49.5561 12.9795Z" fill="#97A79F"/>
<path fill-rule="evenodd" clip-rule="evenodd" d="M51.3274 10.2722C53.796 9.11531 59.8561 12.9555 59.8859 15.1222C59.1452 16.2827 58.7738 16.8632 58.0325 18.0217C55.5897 15.1185 53.3452 13.8462 49.4766 13.1731C50.2173 12.0126 50.5846 11.4333 51.3274 10.2722Z" fill="#F27060"/>
<defs>
<linearGradient id="paint0_linear_2260_65466" x1="38.0726" y1="43.4912" x2="31.7941" y2="37.1672" gradientUnits="userSpaceOnUse">
<stop stop-color="#FFC797"/>
<stop offset="0.31" stop-color="#E5AB77"/>
<stop offset="0.74" stop-color="#C68950"/>
<stop offset="0.97" stop-color="#BB7C42"/>
</linearGradient>
<linearGradient id="paint1_linear_2260_65466" x1="58.2123" y1="7.17227" x2="51.8998" y2="18.5125" gradientUnits="userSpaceOnUse">
<stop stop-color="white"/>
<stop offset="0.02" stop-color="#FCFCFC"/>
<stop offset="0.48" stop-color="#BFC0BD"/>
<stop offset="0.81" stop-color="#999B96"/>
<stop offset="0.98" stop-color="#8B8D88"/>
</linearGradient>
</defs>
</svg>
