<svg width="24" height="24" viewBox="0 0 24 24" fill="none" xmlns="http://www.w3.org/2000/svg">
<path d="M11.5 21C6.26341 21 2 16.7366 2 11.5C2 6.26341 6.26341 2 11.5 2C16.7366 2 21 6.26341 21 11.5C21 16.7366 16.7366 21 11.5 21ZM11.5 3.39024C7.02341 3.39024 3.39024 7.03268 3.39024 11.5C3.39024 15.9673 7.02341 19.6098 11.5 19.6098C15.9766 19.6098 19.6098 15.9673 19.6098 11.5C19.6098 7.03268 15.9766 3.39024 11.5 3.39024Z" fill="#0F1834"/>
<path d="M21.2472 22C21.0559 22 20.8645 21.9295 20.7135 21.7786L17.2191 18.2857C16.927 17.9938 16.927 17.5106 17.2191 17.2187C17.5111 16.9268 17.9945 16.9268 18.2865 17.2187L21.781 20.7116C22.073 21.0035 22.073 21.4867 21.781 21.7786C21.6299 21.9295 21.4386 22 21.2472 22Z" fill="#0F1834"/>
</svg>
