<svg width="16" height="16" viewBox="0 0 16 16" fill="none" xmlns="http://www.w3.org/2000/svg">
<mask id="path-1-inside-1_1245_7816" fill="white">
<path d="M8.12486 6.14697C7.99819 6.14697 7.87151 6.10033 7.77151 6.00033L5.64484 3.87366L3.51817 6.00033C3.32484 6.19366 3.00484 6.19366 2.8115 6.00033C2.61817 5.80699 2.61817 5.48699 2.8115 5.29366L5.29153 2.81364C5.38486 2.72031 5.5115 2.66699 5.64484 2.66699C5.77817 2.66699 5.90486 2.72031 5.99819 2.81364L8.47817 5.29366C8.6715 5.48699 8.6715 5.80699 8.47817 6.00033C8.37817 6.10033 8.25152 6.14697 8.12486 6.14697Z"/>
</mask>
<path d="M8.12486 6.14697C7.99819 6.14697 7.87151 6.10033 7.77151 6.00033L5.64484 3.87366L3.51817 6.00033C3.32484 6.19366 3.00484 6.19366 2.8115 6.00033C2.61817 5.80699 2.61817 5.48699 2.8115 5.29366L5.29153 2.81364C5.38486 2.72031 5.5115 2.66699 5.64484 2.66699C5.77817 2.66699 5.90486 2.72031 5.99819 2.81364L8.47817 5.29366C8.6715 5.48699 8.6715 5.80699 8.47817 6.00033C8.37817 6.10033 8.25152 6.14697 8.12486 6.14697Z" fill="white"/>
<path d="M5.64484 3.87366L6.35194 3.16655L5.64484 2.45944L4.93773 3.16655L5.64484 3.87366ZM3.51817 6.00033L2.81106 5.29322L2.81106 5.29322L3.51817 6.00033ZM2.8115 5.29366L3.51861 6.00077L2.8115 5.29366ZM5.29153 2.81364L4.58442 2.10653L5.29153 2.81364ZM5.99819 2.81364L6.7053 2.10654L6.7053 2.10653L5.99819 2.81364ZM8.47817 5.29366L7.77106 6.00076L7.77106 6.00077L8.47817 5.29366ZM8.12486 5.14697C8.24895 5.14697 8.3811 5.1957 8.47861 5.29322L7.0644 6.70743C7.36192 7.00495 7.74743 7.14697 8.12486 7.14697V5.14697ZM8.47861 5.29322L6.35194 3.16655L4.93773 4.58076L7.0644 6.70743L8.47861 5.29322ZM4.93773 3.16655L2.81106 5.29322L4.22528 6.70743L6.35194 4.58076L4.93773 3.16655ZM2.81106 5.29322C3.00825 5.09603 3.32142 5.09603 3.51861 5.29322L2.1044 6.70743C2.68825 7.29129 3.64142 7.29129 4.22528 6.70743L2.81106 5.29322ZM3.51861 5.29322C3.7158 5.49041 3.7158 5.80358 3.51861 6.00077L2.1044 4.58655C1.52054 5.17041 1.52054 6.12357 2.1044 6.70743L3.51861 5.29322ZM3.51861 6.00077L5.99863 3.52075L4.58442 2.10653L2.1044 4.58655L3.51861 6.00077ZM5.99863 3.52075C5.90653 3.61285 5.77968 3.66699 5.64484 3.66699V1.66699C5.24333 1.66699 4.86319 1.82776 4.58442 2.10653L5.99863 3.52075ZM5.64484 3.66699C5.51008 3.66699 5.38325 3.61291 5.29108 3.52075L6.7053 2.10653C6.42647 1.8277 6.04626 1.66699 5.64484 1.66699V3.66699ZM5.29108 3.52074L7.77106 6.00076L9.18528 4.58656L6.7053 2.10654L5.29108 3.52074ZM7.77106 6.00077C7.57387 5.80358 7.57387 5.49041 7.77106 5.29322L9.18528 6.70743C9.76913 6.12357 9.76913 5.17041 9.18528 4.58655L7.77106 6.00077ZM7.77106 5.29322C7.86852 5.19576 8.00068 5.14697 8.12486 5.14697V7.14697C8.50237 7.14697 8.88782 7.00489 9.18528 6.70743L7.77106 5.29322Z" fill="white" mask="url(#path-1-inside-1_1245_7816)"/>
<path d="M5.64453 13.167C5.3712 13.167 5.14453 12.9403 5.14453 12.667V3.16699C5.14453 2.89366 5.3712 2.66699 5.64453 2.66699C5.91786 2.66699 6.14453 2.89366 6.14453 3.16699V12.667C6.14453 12.9403 5.91786 13.167 5.64453 13.167Z" fill="white"/>
<path d="M10.9783 13.1619C10.845 13.1619 10.7183 13.1086 10.625 13.0153L8.145 10.5353C7.95167 10.3419 7.95167 10.0219 8.145 9.82859C8.33833 9.63526 8.65833 9.63526 8.85167 9.82859L10.9783 11.9553L13.105 9.82859C13.2983 9.63526 13.6183 9.63526 13.8117 9.82859C14.005 10.0219 14.005 10.3419 13.8117 10.5353L11.3316 13.0153C11.2383 13.1086 11.105 13.1619 10.9783 13.1619Z" fill="white"/>
<path d="M10.9717 13.162C10.6983 13.162 10.4717 12.9353 10.4717 12.662V3.167C10.4717 2.89366 10.6983 2.667 10.9717 2.667C11.245 2.667 11.4717 2.89366 11.4717 3.167V12.662C11.4717 12.9353 11.2517 13.162 10.9717 13.162Z" fill="white"/>
</svg>
